<svg xmlns="http://www.w3.org/2000/svg" viewBox="0 0 30 20"><rect width="30" height="20" fill="#EE1C25"/><path d="M5.00,2.00 L5.67,4.07 L7.85,4.07 L6.09,5.35 L6.76,7.43 L5.00,6.15 L3.24,7.43 L3.91,5.35 L2.15,4.07 L4.33,4.07Z" fill="#FFFF00"/><path d="M10.81,1.41 L10.38,2.00 L10.81,2.59 L10.12,2.36 L9.69,2.95 L9.69,2.22 L9.00,2.00 L9.69,1.78 L9.69,1.05 L10.12,1.64Z" fill="#FFFF00"/><path d="M12.99,3.84 L12.34,4.17 L12.45,4.89 L11.94,4.38 L11.29,4.71 L11.62,4.06 L11.11,3.55 L11.83,3.66 L12.16,3.01 L12.27,3.73Z" fill="#FFFF00"/><path d="M12.71,6.29 L12.38,6.94 L12.89,7.45 L12.17,7.34 L11.84,7.99 L11.73,7.27 L11.01,7.16 L11.66,6.83 L11.55,6.11 L12.06,6.62Z" fill="#FFFF00"/><path d="M10.95,8.69 L10.36,9.12 L10.59,9.81 L10.00,9.38 L9.41,9.81 L9.64,9.12 L9.05,8.69 L9.78,8.69 L10.00,8.00 L10.22,8.69Z" fill="#FFFF00"/></svg>
